<?xml version="1.0" encoding="UTF-8"?>
<svg id="Layer_1" data-name="Layer 1" xmlns="http://www.w3.org/2000/svg" viewBox="0 0 998.12 778.92">
  <defs>
    <style>
      .cls-1 {
        fill: #006442;
        stroke-width: 0px;
      }
    </style>
  </defs>
  <path class="cls-1" d="M796.5,273.08c-3.58-11.63-9.23-22.03-16.86-31.18-7.67-9.1-16.2-16.39-25.64-21.98-9.44-5.53-20.03-10.08-31.69-13.65-11.66-3.57-22.96-6.05-33.96-7.5-10.95-1.4-22.31-2.12-33.96-2.12-20.84.31-43.2,3.05-67.07,8.32-23.92,5.27-45.12,11.27-63.59,17.94-18.47,6.67-39.97,14.12-64.59,22.18-24.58,8.12-46.02,14.17-64.34,18.15-8.18,1.76-14.23,2.9-21.85,3.98-1.92.26-3.33,1.91-3.28,3.83l.05,5.69v284.25c-16.91,1.55-34.67,1.5-53.34-.1-33.36-2.84-59.05-13.24-77.11-31.18-11.66-11.69-18.67-25.54-21.04-41.63-2.37-16.08-.45-31.65,5.65-46.75,4.29-11.22,11.15-22.7,20.44-34.49,2.62-3.36,3.53-7.96,1.72-11.84-3.18-6.67-11.15-7.19-15.04-2.38-31.44,38.83-41.23,76.53-29.22,113.2,3.63,11.63,9.23,22.03,16.85,31.18,7.67,9.1,16.2,16.39,25.64,21.98,9.49,5.53,20.03,10.08,31.69,13.65,11.66,3.57,23.01,6.05,33.96,7.5,10.95,1.4,22.31,2.12,33.96,2.12,20.84-.31,43.2-3.05,67.07-8.33,23.92-5.27,45.12-11.27,63.59-17.94,18.47-6.67,40.02-14.07,64.6-22.18,24.58-8.12,46.02-14.17,64.39-18.15,12.26-2.64,21.95-4.34,33.91-5.59,1.62-.21,2.88-1.6,2.88-3.31V217.19c13.37-.62,27.2-.41,41.58.83,33.36,2.84,59.04,13.24,77.11,31.18,11.66,11.69,18.67,25.54,21.04,41.63,2.37,16.08.51,31.7-5.6,46.75-4.34,11.22-11.2,22.7-20.49,34.54-2.62,3.31-3.53,7.96-1.72,11.79,3.18,6.67,11.15,7.19,15.04,2.38,31.44-38.83,41.23-76.53,29.22-113.2ZM389.9,284.57c24.93-4.91,52.64-12.46,84.18-22.91l-84.18,123.95v-101.04ZM490.38,529.11c-7.37,2.69-13.07,4.71-17.11,5.95-4.04,1.29-9.28,3.05-15.85,5.38-6.51,2.27-12.21,4.09-17.06,5.53-4.89,1.4-10.24,3-16.05,4.71-5.85,1.71-11.61,3.21-17.31,4.5-5.7,1.24-11.3,2.33-16.86,3.15-.1,0-.15.05-.25.05v-151.15l115.36,116.5c-3.38,1.14-8.38,2.95-14.89,5.38ZM518.54,508.11l-111.08-112.21,84.08-123.74,118.85,110.82-91.85,125.14ZM620.12,492.55c-23.42,3.88-49.66,10.29-79.18,19.39l79.18-107.82v88.43ZM620.12,364.1l-119.65-111.54c2.22-.83,4.64-1.71,7.47-2.74,7.32-2.69,13.02-4.71,17.06-5.95,4.04-1.29,9.34-3.05,15.85-5.38,6.51-2.28,12.21-4.09,17.06-5.53,4.9-1.4,10.24-3,16.05-4.71,5.85-1.71,11.61-3.21,17.31-4.45,5.7-1.29,11.35-2.38,16.91-3.21,3.89-.72,7.97-1.19,11.96-1.65v145.15Z"/>
</svg>